HIERARCHY
ROOT root
{
	OFFSET	0	13.1	24.9
	CHANNELS 6  Xposition Yposition Zposition Xrotation Yrotation Zrotation
	JOINT spine_1
	{
		OFFSET	0	9.99999	0
		CHANNELS 3  Xrotation Yrotation Zrotation
		JOINT spine_2
		{
			OFFSET	0	112	-10
			CHANNELS 3  Xrotation Yrotation Zrotation
			JOINT spine_3
			{
				OFFSET	0	206.5	19.3
				CHANNELS 3  Xrotation Yrotation Zrotation
				JOINT spine_4
				{
					OFFSET	0	110.4	14.6
					CHANNELS 3  Xrotation Yrotation Zrotation
					JOINT neck_1
					{
						OFFSET	0	71.8	-50.3
						CHANNELS 3  Xrotation Yrotation Zrotation
						JOINT neck_2
						{
							OFFSET	0	86.2	-25.8
							CHANNELS 3  Xrotation Yrotation Zrotation
							JOINT head_ee
							{
								OFFSET	0	179.8	-8.7
								CHANNELS 3  Xrotation Yrotation Zrotation
								End Site
								{
									OFFSET	1	0	0
								}
							}
						}
					}
					JOINT left_clavicle
					{
						OFFSET	-43.2	22.4	-70.8
						CHANNELS 3  Xrotation Yrotation Zrotation
						JOINT left_shoulder
						{
							OFFSET	-93.9	-5.79999	48.7
							CHANNELS 3  Xrotation Yrotation Zrotation
							JOINT left_elbow
							{
								OFFSET	-291.4	-30.8	15.2
								CHANNELS 3  Xrotation Yrotation Zrotation
								JOINT left_lowarm_twist
								{
									OFFSET	-110.7	-3.89999	13.6
									CHANNELS 3  Xrotation Yrotation Zrotation
									JOINT left_hand
									{
										OFFSET	-110.7	-3.89999	13.6
										CHANNELS 3  Xrotation Yrotation Zrotation
										JOINT left_ee
										{
											OFFSET	-80.8	-5.10001	12.1
											CHANNELS 3  Xrotation Yrotation Zrotation
											End Site
											{
												OFFSET	1	0	0
											}
										}
									}
								}
							}
						}
					}
					JOINT right_clavicle
					{
						OFFSET	43.2	22.4	-70.8
						CHANNELS 3  Xrotation Yrotation Zrotation
						JOINT right_shoulder
						{
							OFFSET	93.9	-5.79999	48.7
							CHANNELS 3  Xrotation Yrotation Zrotation
							JOINT right_elbow
							{
								OFFSET	291.4	-30.8	15.2
								CHANNELS 3  Xrotation Yrotation Zrotation
								JOINT right_lowarm_twist
								{
									OFFSET	110.7	-3.89999	13.6
									CHANNELS 3  Xrotation Yrotation Zrotation
									JOINT right_hand
									{
										OFFSET	110.7	-3.89999	13.6
										CHANNELS 3  Xrotation Yrotation Zrotation
										JOINT right_ee
										{
											OFFSET	80.8	-5.10001	12.1
											CHANNELS 3  Xrotation Yrotation Zrotation
											End Site
											{
												OFFSET	1	0	0
											}
										}
									}
								}
							}
						}
					}
				}
			}
		}
	}
	JOINT left_hip
	{
		OFFSET	-82.8	-127.5	0.300001
		CHANNELS 3  Xrotation Yrotation Zrotation
		JOINT left_knee
		{
			OFFSET	-28.2	-396.7	2.2
			CHANNELS 3  Xrotation Yrotation Zrotation
			JOINT left_ankle
			{
				OFFSET	-11.7	-411.3	35.4
				CHANNELS 3  Xrotation Yrotation Zrotation
				JOINT left_toes
				{
					OFFSET	0	-60	-88.6
					CHANNELS 3  Xrotation Yrotation Zrotation
					JOINT left_foot_ee
					{
						OFFSET	-22.5	-16.5	-42.2
						CHANNELS 3  Xrotation Yrotation Zrotation
						End Site
						{
							OFFSET	1	0	0
						}
					}
				}
			}
		}
	}
	JOINT right_hip
	{
		OFFSET	82.8	-127.5	0.300001
		CHANNELS 3  Xrotation Yrotation Zrotation
		JOINT right_knee
		{
			OFFSET	28.2	-396.7	2.2
			CHANNELS 3  Xrotation Yrotation Zrotation
			JOINT right_ankle
			{
				OFFSET	11.7	-411.3	35.4
				CHANNELS 3  Xrotation Yrotation Zrotation
				JOINT right_toes
				{
					OFFSET	0	-60	-88.6
					CHANNELS 3  Xrotation Yrotation Zrotation
					JOINT right_foot_ee
					{
						OFFSET	22.5	-16.5	-42.2
						CHANNELS 3  Xrotation Yrotation Zrotation
						End Site
						{
							OFFSET	1	0	0
						}
					}
				}
			}
		}
	}
}
MOTION
Frames: 14
Frame Time: 0.02
2488.96939301 767.971 -1559.5349771 -2.17620283983 72.5449294617 -3.73062549451 1.25587 0.46556 1.22944 1.25662 0.386391 1.25656 1.26537 0.142613 1.30686 1.26315 0.347202 1.26795 -9.84732 14.5461 4.89748 -9.97419 24.1035 8.41607 -0.0 0.0 -0.0 3.80583 11.1407 7.79067 -33.1327 -25.7909 62.4766 0.71607 -19.5306 0.123242 -83.4303 -8.25515 5.22043 -1.2962 16.5431 -1.20145 -0.0 0.0 -0.0 4.20367 5.0168 -7.8481 -8.87572 32.1987 -60.3955 1.84954 42.492 -0.71915 6.32424 -0.179507 0.787484 2.64983 -28.3081 -26.5363 0.0 0.0 0.0 14.8382 1.48111 2.42786 -35.2522 -0.192661 5.32228 1.58553 26.1494 -0.242746 18.9652 -0.0 -0.0 -0.0 0.0 -0.0 17.3154 8.33198 2.68071 -11.1826 -0.29651 -1.68782 1.23308 15.5252 0.196762 -9.3132 0.0 0.0 0.0 0.0 0.0 
2482.74774106 763.579 -1557.68018025 -3.17343599414 73.5823242151 -2.17052276155 1.17932 0.469711 1.26269 1.18012 0.388418 1.29001 1.18916 0.136518 1.34028 1.18683 0.346458 1.30191 -9.60785 14.7196 4.76475 -9.72934 24.4774 8.28344 -0.0 0.0 -0.0 3.81933 11.3691 7.81994 -33.7579 -25.6998 62.7898 0.645371 -17.7291 0.100654 -83.2177 -8.22842 5.22487 -1.23794 16.088 -1.04904 -0.0 0.0 -0.0 4.23879 4.60836 -7.94248 -8.02926 32.2394 -60.4012 1.95573 44.0876 -0.791969 6.547 -0.184237 0.815547 2.59681 -27.932 -26.1339 0.0 0.0 0.0 16.2464 1.32787 1.8136 -32.0308 -0.039063 4.85199 1.56925 26.1081 -0.240207 18.7798 -0.0 -0.0 -0.0 0.0 -0.0 16.5754 7.61107 1.4577 -11.2372 -0.297145 -1.69618 1.23549 15.4471 0.197026 -8.89981 0.0 0.0 0.0 0.0 0.0 
2473.63788424 757.901 -1551.18955513 -1.9062389474 74.8917216468 -3.01542857637 1.1257 0.485461 1.30919 1.12657 0.401178 1.33742 1.13627 0.13877 1.38937 1.13375 0.356433 1.35003 -9.40844 14.8442 4.65236 -9.52417 24.7525 8.1648 -0.0 0.0 -0.0 3.81029 11.5248 7.80866 -34.264 -25.6189 63.0079 0.59613 -16.4523 0.0861823 -83.0564 -8.20812 5.22817 -1.18946 15.7335 -0.909557 -0.0 0.0 -0.0 4.30102 4.38633 -8.08017 -7.16683 32.3003 -60.4611 2.04739 45.399 -0.856496 6.71723 -0.187779 0.837004 2.55689 -27.632 -25.8261 0.0 0.0 0.0 17.4775 1.05006 0.787076 -28.9031 0.084515 4.38796 1.64949 26.0739 -0.252394 18.6402 -0.0 -0.0 -0.0 0.0 -0.0 16.0602 7.10152 1.05596 -11.289 -0.297739 -1.7041 1.23684 15.3765 0.197134 -8.61075 0.0 0.0 0.0 0.0 0.0 
2466.48405133 763.437 -1544.11532284 -3.37270358392 76.6948306332 -1.12811085548 1.0812 0.377495 1.34199 1.08215 0.291344 1.36329 1.0894 0.0248455 1.39384 1.08677 0.244644 1.37243 -9.25704 14.9099 4.51107 -9.36908 24.9451 8.0128 -0.0 0.0 -0.0 3.79849 11.6067 7.79074 -34.6314 -25.5703 63.1776 0.564274 -15.6171 0.0773825 -82.9167 -8.19055 5.23098 -1.13974 15.375 -0.762645 -0.0 0.0 -0.0 4.35282 3.91133 -8.21012 -7.03421 32.278 -60.6781 2.11853 46.3767 -0.907578 6.8401 -0.190295 0.852498 2.51544 -27.3513 -25.511 0.0 0.0 0.0 18.1974 0.739753 -0.228206 -25.6551 0.185816 3.89986 1.73644 26.0597 -0.265625 18.5332 -0.0 -0.0 -0.0 0.0 -0.0 15.8781 6.73452 0.777812 -11.3724 -0.298681 -1.71687 1.23828 15.3241 0.197283 -8.40644 0.0 0.0 0.0 0.0 0.0 
2425.27480104 764.453 -1547.74336549 -16.2280485251 75.1921477655 13.4232089333 1.3429 -0.0339894 1.04749 1.3435 -0.100571 1.0432 1.3417 -0.294144 1.00592 1.34031 -0.131595 1.03975 -5.82912 15.4264 2.91714 -5.73363 26.404 5.81306 -0.0 0.0 -0.0 2.3598 9.90432 5.24644 -31.2156 -28.4247 67.0834 0.591135 -16.3218 0.084773 -82.703 -8.16363 5.23519 -0.483742 8.28705 0.315999 -0.0 0.0 -0.0 4.10703 1.54112 -7.84702 -10.1914 30.5878 -63.911 2.15817 46.9067 -0.936401 7.19546 -0.197385 0.897338 2.2093 -24.6178 -22.9839 0.0 0.0 0.0 15.5354 1.14275 -1.90629 -11.9289 0.304495 1.80206 -10.0865 27.9177 1.5928 14.8777 -0.0 -0.0 -0.0 0.0 -0.0 15.3577 5.53887 -0.607782 -11.4149 -0.299155 -1.72337 2.64263 15.571 0.420087 -7.52993 0.0 0.0 0.0 0.0 0.0 
2424.86415412 764.453 -1545.62651434 -16.5765360607 75.5016981108 13.7834105945 1.3429 -0.0339894 1.04749 1.3435 -0.100571 1.0432 1.3417 -0.294144 1.00592 1.34031 -0.131595 1.03975 -5.82912 15.4264 2.91714 -5.73363 26.404 5.81306 -0.0 0.0 -0.0 2.3598 9.90432 5.24644 -31.2156 -28.4247 67.0834 0.591135 -16.3218 0.084773 -82.703 -8.16363 5.23519 -0.483742 8.28705 0.315999 -0.0 0.0 -0.0 4.10703 1.54112 -7.84702 -10.1914 30.5878 -63.911 2.15817 46.9067 -0.936401 7.19546 -0.197385 0.897338 2.2093 -24.6178 -22.9839 0.0 0.0 0.0 15.5354 1.14275 -1.90629 -11.9289 0.304495 1.80206 -10.0865 27.9177 1.5928 14.8777 -0.0 -0.0 -0.0 0.0 -0.0 15.3577 5.53887 -0.607782 -11.4149 -0.299155 -1.72337 2.64263 15.571 0.420087 -7.52993 0.0 0.0 0.0 0.0 0.0 
2424.57282118 764.453 -1544.08463018 -16.8397373587 75.7266024668 14.0551312794 1.3429 -0.0339894 1.04749 1.3435 -0.100571 1.0432 1.3417 -0.294144 1.00592 1.34031 -0.131595 1.03975 -5.82912 15.4264 2.91714 -5.73363 26.404 5.81306 -0.0 0.0 -0.0 2.3598 9.90432 5.24644 -31.2156 -28.4247 67.0834 0.591135 -16.3218 0.084773 -82.703 -8.16363 5.23519 -0.483742 8.28705 0.315999 -0.0 0.0 -0.0 4.10703 1.54112 -7.84702 -10.1914 30.5878 -63.911 2.15817 46.9067 -0.936401 7.19546 -0.197385 0.897338 2.2093 -24.6178 -22.9839 0.0 0.0 0.0 15.5354 1.14275 -1.90629 -11.9289 0.304495 1.80206 -10.0865 27.9177 1.5928 14.8777 -0.0 -0.0 -0.0 0.0 -0.0 15.3577 5.53887 -0.607782 -11.4149 -0.299155 -1.72337 2.64263 15.571 0.420087 -7.52993 0.0 0.0 0.0 0.0 0.0 
2423.8204668 764.453 -1539.93085088 -17.5912034182 76.3300220445 14.829495708 1.3429 -0.0339894 1.04749 1.3435 -0.100571 1.0432 1.3417 -0.294144 1.00592 1.34031 -0.131595 1.03975 -5.82912 15.4264 2.91714 -5.73363 26.404 5.81306 -0.0 0.0 -0.0 2.3598 9.90432 5.24644 -31.2156 -28.4247 67.0834 0.591135 -16.3218 0.084773 -82.703 -8.16363 5.23519 -0.483742 8.28705 0.315999 -0.0 0.0 -0.0 4.10703 1.54112 -7.84702 -10.1914 30.5878 -63.911 2.15817 46.9067 -0.936401 7.19546 -0.197385 0.897338 2.2093 -24.6178 -22.9839 0.0 0.0 0.0 15.5354 1.14275 -1.90629 -11.9289 0.304495 1.80206 -10.0865 27.9177 1.5928 14.8777 -0.0 -0.0 -0.0 0.0 -0.0 15.3577 5.53887 -0.607782 -11.4149 -0.299155 -1.72337 2.64263 15.571 0.420087 -7.52993 0.0 0.0 0.0 0.0 0.0 
2423.52572919 764.453 -1538.22827096 -17.9184592069 76.5762788734 15.1661158965 1.3429 -0.0339894 1.04749 1.3435 -0.100571 1.0432 1.3417 -0.294144 1.00592 1.34031 -0.131595 1.03975 -5.82912 15.4264 2.91714 -5.73363 26.404 5.81306 -0.0 0.0 -0.0 2.3598 9.90432 5.24644 -31.2156 -28.4247 67.0834 0.591135 -16.3218 0.084773 -82.703 -8.16363 5.23519 -0.483742 8.28705 0.315999 -0.0 0.0 -0.0 4.10703 1.54112 -7.84702 -10.1914 30.5878 -63.911 2.15817 46.9067 -0.936401 7.19546 -0.197385 0.897338 2.2093 -24.6178 -22.9839 0.0 0.0 0.0 15.5354 1.14275 -1.90629 -11.9289 0.304495 1.80206 -10.0865 27.9177 1.5928 14.8777 -0.0 -0.0 -0.0 0.0 -0.0 15.3577 5.53887 -0.607782 -11.4149 -0.299155 -1.72337 2.64263 15.571 0.420087 -7.52993 0.0 0.0 0.0 0.0 0.0 
2423.86649217 764.453 -1540.19266329 -17.541911405 76.292097491 14.778762615 1.3429 -0.0339894 1.04749 1.3435 -0.100571 1.0432 1.3417 -0.294144 1.00592 1.34031 -0.131595 1.03975 -5.82912 15.4264 2.91714 -5.73363 26.404 5.81306 -0.0 0.0 -0.0 2.3598 9.90432 5.24644 -31.2156 -28.4247 67.0834 0.591135 -16.3218 0.084773 -82.703 -8.16363 5.23519 -0.483742 8.28705 0.315999 -0.0 0.0 -0.0 4.10703 1.54112 -7.84702 -10.1914 30.5878 -63.911 2.15817 46.9067 -0.936401 7.19546 -0.197385 0.897338 2.2093 -24.6178 -22.9839 0.0 0.0 0.0 15.5354 1.14275 -1.90629 -11.9289 0.304495 1.80206 -10.0865 27.9177 1.5928 14.8777 -0.0 -0.0 -0.0 0.0 -0.0 15.3577 5.53887 -0.607782 -11.4149 -0.299155 -1.72337 2.64263 15.571 0.420087 -7.52993 0.0 0.0 0.0 0.0 0.0 
2415.83584027 767.417 -1537.07678364 -17.6830312782 75.7461355954 15.1970044601 1.334 -0.0101491 1.0568 1.33461 -0.0773717 1.05401 1.33323 -0.273527 1.02084 1.33179 -0.108881 1.05123 -5.55961 15.6464 3.35028 -5.43914 26.4423 6.22987 -0.0 0.0 -0.0 2.29565 9.90484 5.13551 -30.8785 -28.7173 67.449 0.607148 -16.7395 0.0893292 -82.8153 -8.17777 5.23299 -0.393017 7.07893 0.392395 -0.0 0.0 -0.0 4.0859 1.20091 -7.82306 -11.6757 30.2665 -63.7861 2.07796 45.8234 -0.878345 7.24498 -0.198351 0.903591 2.19911 -24.3143 -22.8457 0.0 0.0 0.0 15.3004 1.31882 -2.15059 -11.3629 0.298575 1.71541 -11.0119 28.193 1.74382 14.7465 -0.0 -0.0 -0.0 0.0 -0.0 15.3235 5.46472 -0.735336 -10.254 -0.284497 -1.54584 3.21719 16.1366 0.512781 -7.44427 0.0 0.0 0.0 0.0 0.0 
2415.09132246 767.417 -1532.36829977 -18.5612625043 76.4112834375 16.1017961476 1.334 -0.0101491 1.0568 1.33461 -0.0773717 1.05401 1.33323 -0.273527 1.02084 1.33179 -0.108881 1.05123 -5.55961 15.6464 3.35028 -5.43914 26.4423 6.22987 -0.0 0.0 -0.0 2.29565 9.90484 5.13551 -30.8785 -28.7173 67.449 0.607148 -16.7395 0.0893292 -82.8153 -8.17777 5.23299 -0.393017 7.07893 0.392395 -0.0 0.0 -0.0 4.0859 1.20091 -7.82306 -11.6757 30.2665 -63.7861 2.07796 45.8234 -0.878345 7.24498 -0.198351 0.903591 2.19911 -24.3143 -22.8457 0.0 0.0 0.0 15.3004 1.31882 -2.15059 -11.3629 0.298575 1.71541 -11.0119 28.193 1.74382 14.7465 -0.0 -0.0 -0.0 0.0 -0.0 15.3235 5.46472 -0.735336 -10.254 -0.284497 -1.54584 3.21719 16.1366 0.512781 -7.44427 0.0 0.0 0.0 0.0 0.0 
2390.76447975 772.2 -1546.28711197 -18.938242657 71.6487678 17.0132594985 2.00935 0.0367457 0.968681 2.00987 -0.0249656 0.969056 2.00941 -0.194924 0.94958 2.00815 -0.0425163 0.968445 -2.32065 16.7095 4.26848 -1.94527 26.9835 6.66458 -0.0 0.0 -0.0 2.03856 9.63469 4.67202 -30.1122 -29.2106 66.0504 0.629081 -17.3086 0.0957506 -82.687 -8.16162 5.2355 0.0664653 4.24491 2.21587 -0.0 0.0 -0.0 4.1946 1.04518 -8.04382 -16.2486 29.9778 -63.7663 1.86301 42.699 -0.728266 7.31964 -0.199797 0.913017 2.12524 -23.4157 -22.1548 0.0 0.0 0.0 14.8017 5.92636 -2.05071 -9.26206 0.269126 1.39442 -12.6728 30.0374 2.03472 14.3584 -0.0 -0.0 -0.0 0.0 -0.0 14.5317 5.34156 -1.61527 -4.66879 -0.163876 -0.697582 5.07151 17.0962 0.809743 -7.3075 0.0 0.0 0.0 0.0 0.0 
2394.73861626 768.099 -1559.53684459 -19.5497275663 69.1438341316 17.1168119364 2.14307 0.0736919 0.870601 2.1435 0.0181461 0.873525 2.14373 -0.133659 0.863431 2.14269 0.00437623 0.873703 -2.50024 16.4434 4.09207 -2.14796 26.6782 6.4825 -0.0 0.0 -0.0 1.83985 9.44067 4.31284 -29.521 -29.4882 64.55 0.704641 -19.242 0.119448 -82.6568 -8.15781 5.23609 0.139364 3.84399 2.53091 -0.0 0.0 -0.0 4.41346 1.21116 -8.46504 -17.0515 30.1016 -64.1282 1.79543 41.6461 -0.682893 7.25323 -0.198511 0.904631 2.10844 -23.3384 -22.029 0.0 0.0 0.0 13.3876 6.7726 -1.56801 -4.72401 0.165472 0.705907 -12.3255 29.9388 1.97691 14.549 -0.0 -0.0 -0.0 0.0 -0.0 14.7303 5.20878 -1.57324 -3.50176 -0.128256 -0.522024 5.49566 16.1431 0.869505 -7.07494 0.0 0.0 0.0 0.0 0.0 
